#define oscillator_noise_64_width 64
#define oscillator_noise_64_height 64
static char oscillator_noise_64_bits[] = {
  0x00, 0x00, 0x00, 0x00, 0x00, 0x00, 0x00, 0x00, 0x00, 0x00, 0x00, 0x00, 
  0x00, 0x00, 0x00, 0x00, 0x00, 0x00, 0x00, 0x00, 0x00, 0x00, 0x00, 0x00, 
  0x00, 0x00, 0x00, 0x00, 0x00, 0x00, 0x00, 0x00, 0x00, 0x00, 0x00, 0x00, 
  0x00, 0x00, 0x00, 0x00, 0x00, 0x00, 0x00, 0x00, 0x00, 0x0F, 0x00, 0x00, 
  0x00, 0x00, 0x00, 0x00, 0x80, 0x0F, 0x00, 0x00, 0x00, 0x00, 0x00, 0x00, 
  0x80, 0x0F, 0x00, 0x00, 0x00, 0x00, 0x00, 0x00, 0x80, 0x0F, 0x00, 0x00, 
  0x00, 0x00, 0x00, 0x00, 0x80, 0x1F, 0x00, 0x00, 0x00, 0x00, 0x00, 0x00, 
  0x80, 0x0F, 0x00, 0x00, 0x00, 0x00, 0x00, 0x00, 0xC0, 0x1F, 0x00, 0x00, 
  0x00, 0x00, 0x00, 0x00, 0xC0, 0x1F, 0x00, 0x00, 0x00, 0x00, 0x00, 0x00, 
  0xC0, 0x1F, 0x00, 0x00, 0x00, 0x00, 0x00, 0x00, 0xC0, 0x3F, 0x00, 0x00, 
  0x00, 0x00, 0x00, 0x00, 0xC0, 0x1F, 0x00, 0x00, 0x00, 0x00, 0x00, 0x00, 
  0xC0, 0x3F, 0x00, 0x00, 0x00, 0x20, 0x00, 0x00, 0xE0, 0x3F, 0x00, 0x00, 
  0x00, 0x7C, 0x00, 0x00, 0xE0, 0x3F, 0x00, 0x00, 0x00, 0x7C, 0x00, 0x00, 
  0xE0, 0x3D, 0x00, 0x00, 0x00, 0x7C, 0x00, 0x00, 0xE0, 0x3D, 0x00, 0x00, 
  0x00, 0x7C, 0x00, 0x00, 0xE0, 0x3D, 0x00, 0x00, 0x00, 0xFE, 0x00, 0x00, 
  0xE0, 0x3D, 0x00, 0x00, 0x00, 0xFE, 0xC0, 0x03, 0xF0, 0x78, 0x00, 0x00, 
  0x00, 0xFE, 0xC0, 0x07, 0xF0, 0x7C, 0x00, 0x00, 0x00, 0xFE, 0xC1, 0x07, 
  0xF0, 0x78, 0x00, 0x00, 0x00, 0xFF, 0xC1, 0x07, 0xF0, 0x78, 0x00, 0x00, 
  0x00, 0xFF, 0xE1, 0x07, 0xF0, 0x78, 0x00, 0x00, 0x00, 0xEF, 0xE1, 0x0F, 
  0xF8, 0x78, 0x00, 0x00, 0xA0, 0xEF, 0xE3, 0x0F, 0x78, 0x78, 0xA4, 0x0A, 
  0xF8, 0xC7, 0xE3, 0x0F, 0x78, 0xF8, 0xFC, 0x1F, 0xFC, 0xCF, 0xE3, 0x0F, 
  0x78, 0xF0, 0xFC, 0x3F, 0xF8, 0xC7, 0xF7, 0x0F, 0x7C, 0xF0, 0xFC, 0x1F, 
  0xB8, 0x86, 0xF7, 0x1F, 0x78, 0xF0, 0x7E, 0x1A, 0x00, 0x80, 0xF7, 0x1F, 
  0x3C, 0xF0, 0x3E, 0x00, 0x00, 0x80, 0xF7, 0x1E, 0x3C, 0xF0, 0x1E, 0x00, 
  0x00, 0x80, 0x7F, 0x1E, 0x3C, 0xF0, 0x1F, 0x00, 0x00, 0x80, 0xFF, 0x1E, 
  0x3C, 0xE0, 0x1F, 0x00, 0x00, 0x00, 0x7F, 0x3E, 0x3E, 0xE0, 0x1F, 0x00, 
  0x00, 0x00, 0x7F, 0x3C, 0x1E, 0xE0, 0x1F, 0x00, 0x00, 0x00, 0x7F, 0x3C, 
  0x1E, 0xE0, 0x0F, 0x00, 0x00, 0x00, 0x7E, 0x3C, 0x1E, 0xE0, 0x1F, 0x00, 
  0x00, 0x00, 0x3E, 0x7C, 0x1E, 0xE0, 0x0F, 0x00, 0x00, 0x00, 0x3E, 0x78, 
  0x1F, 0xE0, 0x0F, 0x00, 0x00, 0x00, 0x3E, 0x78, 0x1E, 0xC0, 0x0F, 0x00, 
  0x00, 0x00, 0x1C, 0x78, 0x0F, 0xC0, 0x07, 0x00, 0x00, 0x00, 0x00, 0x78, 
  0x0F, 0xC0, 0x07, 0x00, 0x00, 0x00, 0x00, 0xF8, 0x0F, 0xC0, 0x0F, 0x00, 
  0x00, 0x00, 0x00, 0xF0, 0x0F, 0xC0, 0x07, 0x00, 0x00, 0x00, 0x00, 0xF0, 
  0x07, 0x80, 0x07, 0x00, 0x00, 0x00, 0x00, 0xF0, 0x0F, 0x80, 0x03, 0x00, 
  0x00, 0x00, 0x00, 0xF0, 0x07, 0x00, 0x00, 0x00, 0x00, 0x00, 0x00, 0xF0, 
  0x07, 0x00, 0x00, 0x00, 0x00, 0x00, 0x00, 0xE0, 0x07, 0x00, 0x00, 0x00, 
  0x00, 0x00, 0x00, 0xE0, 0x07, 0x00, 0x00, 0x00, 0x00, 0x00, 0x00, 0xE0, 
  0x03, 0x00, 0x00, 0x00, 0x00, 0x00, 0x00, 0xE0, 0x07, 0x00, 0x00, 0x00, 
  0x00, 0x00, 0x00, 0xE0, 0x03, 0x00, 0x00, 0x00, 0x00, 0x00, 0x00, 0xC0, 
  0x03, 0x00, 0x00, 0x00, 0x00, 0x00, 0x00, 0x00, 0x00, 0x00, 0x00, 0x00, 
  0x00, 0x00, 0x00, 0x00, 0x00, 0x00, 0x00, 0x00, 0x00, 0x00, 0x00, 0x00, 
  0x00, 0x00, 0x00, 0x00, 0x00, 0x00, 0x00, 0x00, 0x00, 0x00, 0x00, 0x00, 
  0x00, 0x00, 0x00, 0x00, 0x00, 0x00, 0x00, 0x00, };
